<svg width="197" height="78" viewBox="0 0 197 78" fill="none" xmlns="http://www.w3.org/2000/svg">
<g clip-path="url(#clip0)">
<g clip-path="url(#clip1)">
<path d="M2.8215 40.5171V30.2422H3.76859V34.3781C4.16832 33.8875 4.61574 33.5218 5.11086 33.2811C5.60598 33.0358 6.14879 32.9132 6.7393 32.9132C7.78859 32.9132 8.68343 33.2947 9.42384 34.0578C10.1688 34.8164 10.5413 35.7385 10.5413 36.8241C10.5413 37.8961 10.1665 38.8114 9.41703 39.57C8.66754 40.3286 7.76587 40.7079 6.71204 40.7079C6.10791 40.7079 5.56055 40.5784 5.06998 40.3195C4.5794 40.0606 4.1456 39.6722 3.76859 39.1544V40.5171H2.8215ZM6.6371 39.788C7.16855 39.788 7.65913 39.6586 8.10882 39.3997C8.55852 39.1362 8.91509 38.7683 9.17855 38.2959C9.44655 37.8235 9.58055 37.3238 9.58055 36.7969C9.58055 36.27 9.44655 35.768 9.17855 35.2911C8.91055 34.8141 8.54943 34.4439 8.0952 34.1805C7.6455 33.9125 7.16401 33.7785 6.65072 33.7785C6.12835 33.7785 5.63096 33.9125 5.15855 34.1805C4.69069 34.4439 4.32957 34.8005 4.0752 35.2502C3.82537 35.6999 3.70045 36.2064 3.70045 36.7696C3.70045 37.6281 3.98208 38.3458 4.54533 38.9227C5.11313 39.4996 5.81038 39.788 6.6371 39.788ZM11.4883 33.1039H12.4968L15.045 38.8137L17.5183 33.1039H18.5336L14.1116 43.2289H13.1032L14.534 39.9584L11.4883 33.1039Z" fill="black"/>
<path d="M9.0986 50.3095C5.50255 49.9124 4.16178 49.4842 4.16178 47.6469C4.16178 45.9419 5.40955 44.9531 8.59484 44.9531C11.0361 44.9531 12.8032 45.6616 13.9269 47.4211L14.6322 46.9773C13.4774 45.1945 11.6329 44.2446 8.63359 44.2446C4.23153 44.2446 2.2785 46.2066 2.2785 48.55C2.2785 51.6175 4.60354 52.3104 8.26159 52.723C11.9196 53.1356 13.1984 53.6027 13.1984 55.8372C13.1984 58.0716 11.6484 59.2083 8.63359 59.2083C5.4793 59.2083 3.80528 58.1339 2.66601 56.2264L1.9375 56.6235C3.18527 58.7334 5.03754 59.9168 8.63359 59.9168C13.1209 59.9168 15.4537 57.729 15.4537 54.6771C15.4537 51.524 12.9892 50.7377 9.0986 50.3095Z" fill="black"/>
<path d="M30.5819 55.0434C30.5819 57.7372 29.3884 59.1463 25.7768 59.1463C21.9018 59.1463 20.871 57.5893 20.871 54.5218V44.4863H18.1895V54.6074C18.1895 58.9128 20.871 59.9249 25.4746 59.9249C29.9076 59.9249 31.4034 58.1654 31.4034 55.2069V44.4863H30.5819V55.0434Z" fill="black"/>
<path d="M47.3841 57.309L37.6965 44.4863H34.8057V59.738H35.6504V46.0979L45.9116 59.738H48.2289V44.4863H47.3841V57.309Z" fill="black"/>
<path d="M57.8544 44.4863H52.1348V59.7458H57.8544C61.5124 59.7458 67.0305 59.1619 67.0305 52.1394C67.0305 45.4206 61.6752 44.4863 57.8544 44.4863ZM57.6761 59.0529H54.8241V45.1559H57.6916C62.4579 45.1559 64.1939 46.2381 64.1939 52.1161C64.1939 58.3211 62.3107 59.0529 57.6761 59.0529Z" fill="black"/>
<path d="M74.9824 44.4863L68.6118 59.7458H69.5031L71.4251 55.1524H78.9117L80.8337 59.7458H83.5928L77.1989 44.4863H74.9824ZM71.7351 54.405L75.1762 46.2069L78.6095 54.405H71.7351Z" fill="black"/>
<path d="M95.985 44.4863L91.18 52.6144L86.1502 44.4863H83.0889L88.7929 53.7121V59.738H91.4977V53.5642L96.8763 44.4863H95.985Z" fill="black"/>
<path d="M30.3416 73.8062C29.2954 71.2215 28.0863 71.058 26.9316 70.8478C30.0316 70.4974 31.4189 68.9948 31.4189 66.9005C31.4189 63.0078 28.1561 62.7275 25.5676 62.7275H18.1895V77.9793H20.9252V71.0736H24.5368C26.1566 71.0736 26.6991 71.564 27.3501 73.3002L28.5591 76.4144C28.719 76.9913 29.0079 77.5238 29.4039 77.9715H32.2326V77.7846C31.8614 77.365 31.5769 76.8754 31.3956 76.3443L30.3416 73.8062ZM25.1568 70.3651H20.9252V63.4204H25.4126C27.8538 63.4204 28.7296 63.981 28.7296 67.0095C28.6753 69.5632 28.1018 70.3651 25.1568 70.3651Z" fill="black"/>
<path d="M37.495 62.7275H34.8135V77.987H37.495V62.7275Z" fill="black"/>
<path d="M44.5321 62.7275H41.8506V77.987H52.9797V77.2708H44.5321V62.7275Z" fill="black"/>
<path d="M58.5829 70.6998H65.4263V69.968H58.5442V63.436H67.3018V62.7275H55.9014V77.987H67.8288V77.2708H58.5829V70.6998Z" fill="black"/>
<path d="M82.5851 62.7275L77.7801 70.8478L72.7425 62.7275H69.689L75.393 71.9533V77.987H78.0901V71.8054L83.4764 62.7275H82.5851Z" fill="black"/>
<path d="M21.5687 13.0952V0.303711H20.1504V13.0719C20.1504 17.5096 22.0879 19.0589 25.9707 19.6272C22.9947 18.7319 21.5687 16.8089 21.5687 13.0952Z" fill="black"/>
<path d="M8.97475 7.60639C4.46419 7.11591 2.85217 6.57093 2.85217 4.2275C2.85217 2.06315 4.34794 0.724048 8.33924 0.724048C11.4393 0.724048 13.7643 1.59602 15.1903 3.83823L15.9111 3.39446C14.4618 1.19896 12.1523 0 8.38574 0C3.27067 0 1.7749 2.25 1.7749 4.55449C1.7749 7.66868 3.85193 8.44722 8.43225 8.89878C13.2296 9.36591 15.8878 10.3313 15.8878 14.154C15.8928 15.263 15.6125 16.3544 15.0741 17.3226C15.6582 16.79 16.1259 16.1413 16.4474 15.4176C16.7689 14.6939 16.9373 13.911 16.9419 13.1185C16.9419 9.13234 13.8573 8.14359 8.97475 7.60639Z" fill="black"/>
<path d="M40.75 0.303711V19.4326H41.5715V2.13329L54.5839 19.4326H56.3355L41.9435 0.303711H40.75Z" fill="black"/>
<path d="M56.5678 16.5753L44.2761 0.303711H42.5479L56.9243 19.4326H57.366V0.303711H56.5678V16.5753Z" fill="black"/>
<path d="M63.4656 0.303711H62.0396V19.4326H63.4656V0.303711Z" fill="black"/>
<path d="M35.7513 13.5935C35.7513 17.0892 34.2012 18.9655 29.6752 18.9655C24.7694 18.9655 23.4751 16.9023 23.4751 12.9317V0.303711H22.0801V13.0952C22.0801 18.1947 25.1414 19.6973 29.6752 19.6973C34.488 19.6973 36.5418 17.5563 36.5418 13.8271V0.303711H35.7668L35.7513 13.5935Z" fill="black"/>
<path d="M8.36237 9.38959C3.54955 8.89911 1.26327 8.02714 1.26327 4.62489C1.21861 3.71829 1.46295 2.821 1.96078 2.06348C1.46652 2.48566 1.07127 3.01238 0.803305 3.60593C0.535342 4.19948 0.401295 4.84519 0.410756 5.49686C0.410756 9.24946 3.4488 10.1681 8.00586 10.6586C12.5629 11.1491 14.2059 11.7875 14.2059 14.6214C14.2059 17.4553 12.2452 18.9657 8.45537 18.9657C4.44081 18.9657 2.25528 17.6733 0.790511 15.2131L0 15.5712C1.61202 18.2728 3.95256 19.7053 8.40887 19.7053C12.8652 19.7053 15.384 17.6578 15.384 14.2555C15.3762 10.7287 12.9659 9.85672 8.36237 9.38959Z" fill="black"/>
<path d="M165.573 1.85303C167.542 3.49576 168.286 6.17396 168.286 9.83312C168.286 13.7259 167.511 16.4352 165.573 17.9845C168.449 16.622 169.782 14.0918 169.782 9.85648C169.782 5.87032 168.177 3.19213 165.573 1.85303Z" fill="black"/>
<path d="M175.393 0.303711H173.943V19.4326H175.393V0.303711Z" fill="black"/>
<path d="M167.774 9.83311C167.774 2.88848 165.201 0.303711 158.381 0.303711H153.119V19.4637H158.404C165.131 19.4637 167.774 17.1281 167.774 9.83311ZM158.102 18.7319H154.521V1.01219H158.102C164.101 1.01219 166.209 2.37464 166.209 9.90318C166.232 17.8599 163.961 18.7319 158.102 18.7319Z" fill="black"/>
<path d="M152.607 0.303711H151.181V19.4326H152.607V0.303711Z" fill="black"/>
<path d="M135.619 10.2146H144.106V9.48277H135.573V1.01219H146.462V0.303711H134.193V19.4326H147.113V18.7319H135.619V10.2146Z" fill="black"/>
<path d="M189.033 0.303711V19.4326H190.459V1.03554H197V0.303711H189.033Z" fill="black"/>
<path d="M177.33 0.303711H175.904V19.4326H177.33V0.303711Z" fill="black"/>
<path d="M180.554 1.03554H187.072V19.4326H188.521V0.303711H180.554V1.03554Z" fill="black"/>
<path d="M112.764 10.6117L106.502 0.303711H104.867L111.648 11.4525V19.4326H113.074V11.4758L119.824 0.303711H118.98L112.764 10.6117Z" fill="black"/>
<path d="M133.681 0.303711H132.255V19.4326H133.681V0.303711Z" fill="black"/>
<path d="M90.7771 0.303711L82.8564 19.4637H83.7477L86.22 13.5312H95.5201L98.0002 19.4637H99.4727L91.5521 0.303711H90.7771ZM86.5067 12.7604L90.8701 2.19558L95.2644 12.7604H86.5067Z" fill="black"/>
<path d="M76.4316 1.85303C78.3924 3.49576 79.1442 6.17396 79.1442 9.83312C79.1442 13.7259 78.3227 16.4352 76.4316 17.9845C79.3069 16.622 80.64 14.0918 80.64 9.85648C80.64 5.87032 79.0512 3.19213 76.4316 1.85303Z" fill="black"/>
<path d="M92.0635 0.303711L100.007 19.4326H101.503L93.5592 0.303711H92.0635Z" fill="black"/>
<path d="M78.6248 9.83311C78.6248 2.88848 76.0595 0.303711 69.2316 0.303711H63.9771V19.4637H69.2549C75.9897 19.4637 78.6248 17.1281 78.6248 9.83311ZM68.9759 18.7319H65.4031V1.01219H68.9759C74.9822 1.01219 77.0902 2.37464 77.0902 9.90318C77.0902 17.8599 74.8195 18.7319 68.9759 18.7319Z" fill="black"/>
<path d="M102.673 0.303711L109.687 11.8807V19.4326H111.129V11.5693L104.285 0.303711H102.673Z" fill="black"/>
</g>
</g>
<defs>
<clipPath id="clip0">
<rect width="197" height="77.9792" fill="white"/>
</clipPath>
<clipPath id="clip1">
<rect width="197" height="77.9792" fill="white"/>
</clipPath>
</defs>
</svg>
