<svg width="221" height="22" fill="none">
  <defs/>
  <path fill="#000" fill-rule="evenodd" d="M3.2 4.72c0 2.62 1.8 3.23 6.84 3.78 5.5.6 8.95 1.7 8.95 6.16a6.38 6.38 0 01-2.1 4.7c.61-1.09.93-2.3.92-3.55 0-4.27-2.97-5.35-8.36-5.87-5.14-.53-7.47-1.4-7.47-4.85C1.98 2.52 3.67 0 9.4 0c4.22 0 6.81 1.34 8.44 3.81l-.81.5C15.4 1.78 12.84.8 9.35.8 4.87.81 3.2 2.31 3.2 4.72zM24.18.34v14.3c0 4.15 1.58 6.28 4.92 7.28-4.34-.63-6.52-2.36-6.52-7.31V.34h1.6zm21.5 0v21.37h.92V2.4L61.19 21.7h1.96L47.02.34h-1.34zm3.96 0l13.78 18.17V.34h.89v21.37h-.5L47.7.34h1.94zm21.5 0h-1.6v21.37h1.6V.34zM33.27 21.2c5.06 0 6.8-2.1 6.8-6L40.1.33h.87v15.1c0 4.17-2.3 6.56-7.7 6.56-5.08 0-8.52-1.69-8.52-7.37V.34h1.6v14.1c0 4.44 1.42 6.75 6.92 6.75zm-23.9-10.7c-5.39-.55-7.96-1.52-7.96-5.32a4.74 4.74 0 01.77-2.86A4.9 4.9 0 00.44 6.1c0 4.2 3.4 5.2 8.51 5.78 5.1.57 6.94 1.26 6.94 4.43s-2.18 4.85-6.44 4.85c-4.5 0-6.94-1.44-8.6-4.2l-.85.41C1.8 20.4 4.43 22 9.43 22s7.8-2.28 7.8-6.06c0-3.96-2.7-4.93-7.85-5.45zm179.3.5c0-4.11-.87-7.08-3.06-8.92 2.94 1.5 4.74 4.49 4.72 8.94 0 4.7-1.5 7.56-4.72 9.08 2.14-1.73 3.06-4.73 3.06-9.1zM196.62.34h-1.63v21.37h1.63V.34zm-19.07 0c7.64 0 10.53 2.89 10.53 10.65 0 8.18-2.97 10.72-10.5 10.72h-5.93V.34h5.9zm-4.3 20.58h4c6.55 0 9.1-.97 9.09-9.85 0-8.42-2.36-9.94-9.09-9.94h-4v19.8zM171.07.34h-1.6v21.37h1.6V.34zm-9.54 11.07h-9.5v9.51h12.88v.8h-14.48V.33h13.75v.79h-12.2v9.46h9.55v.82zM211.91.34v21.37h1.6V1.15h7.34v-.8h-8.94zm-14.72 0h1.6v21.37h-1.6V.34zm5.22.81h7.3v20.56h1.63V.34h-8.94v.81zm-83.02-.8l7.03 11.5 6.96-11.5h.95l-7.58 12.47v8.9h-1.6V12.8L117.57.34h1.83zm30.47 0h-1.6V21.7h1.6V.34zM92.89 21.7L101.77.34h.86l8.9 21.37h-1.64l-2.78-6.63H96.66l-2.8 6.63h-.97zm8.97-19.22l-4.9 11.8h9.83l-4.93-11.8zm-16.18-.42c2.19 1.84 3.06 4.8 3.06 8.92 0 4.37-.92 7.37-3.06 9.1 3.22-1.52 4.72-4.37 4.72-9.08 0-4.45-1.77-7.44-4.72-8.94zm26.43 19.64L103.21.34h1.67l8.9 21.37h-1.67zM88.14 11C88.14 3.23 85.26.34 77.61.34h-5.89v21.37h5.92c7.54 0 10.5-2.54 10.5-10.72zm-10.81 9.93h-4.01V1.12h4c6.74 0 9.1 1.53 9.1 9.95 0 8.88-2.55 9.85-9.1 9.85zm45.63-7.65L115.1.34h1.8l7.68 12.59v8.78h-1.62v-8.44z" clip-rule="evenodd"/>
</svg>
