<svg width="221" height="22" viewBox="0 0 221 22" fill="none" xmlns="http://www.w3.org/2000/svg">
<path d="M24.1775 14.6316V0.34082H22.5796V14.6054C22.5796 19.5613 24.7625 21.292 29.102 21.9213C25.7579 20.9249 24.1775 18.7922 24.1775 14.6316Z" fill="black"/>
<path d="M10.0411 8.49583C5.00304 7.94517 3.19561 7.34207 3.19561 4.7199C3.19561 2.30751 4.87206 0.812872 9.35133 0.812872C12.8439 0.812872 15.4023 1.78307 17.0263 4.3091L17.8384 3.81089C16.2143 1.33731 13.621 0 9.40372 0C3.66712 0 1.98193 2.51728 1.98193 5.08701C1.98193 8.54827 4.31325 9.41359 9.44738 9.93802C14.8435 10.4625 17.8122 11.5375 17.8122 15.8117C17.8173 17.0511 17.5014 18.2708 16.8954 19.3516C17.5512 18.7579 18.0762 18.0339 18.437 17.2257C18.7978 16.4176 18.9865 15.5431 18.9909 14.6579C18.9909 10.2002 15.5332 9.09893 10.0411 8.49583Z" fill="black"/>
<path d="M45.6831 0.34082V21.7115H46.5999V2.38611L61.1903 21.7115H63.1549L47.019 0.34082H45.6831Z" fill="black"/>
<path d="M63.4169 18.5125L49.6386 0.34082H47.7002L63.8098 21.7115H64.3075V0.34082H63.4169V18.5125Z" fill="black"/>
<path d="M71.1443 0.34082H69.5464V21.7115H71.1443V0.34082Z" fill="black"/>
<path d="M40.0777 15.1823C40.0777 19.0893 38.3314 21.1871 33.2671 21.1871C27.7663 21.1871 26.3518 18.8796 26.3518 14.4481V0.34082H24.7539V14.6316C24.7539 20.313 28.1854 21.9999 33.2671 21.9999C38.6632 21.9999 40.9683 19.6138 40.9683 15.4445V0.34082H40.0952L40.0777 15.1823Z" fill="black"/>
<path d="M9.37764 10.4885C3.98157 9.93789 1.41451 8.96768 1.41451 5.16554C1.3588 4.15509 1.6281 3.15336 2.18288 2.30737C1.62847 2.77385 1.18429 3.35759 0.882322 4.01656C0.580356 4.67552 0.42812 5.39332 0.436576 6.11826C0.436576 10.3137 3.84187 11.3102 8.9498 11.887C14.0577 12.4639 15.8914 13.1457 15.8914 16.3185C15.8914 19.4913 13.7085 21.1695 9.4475 21.1695C4.94204 21.1695 2.50594 19.7273 0.855688 16.974L0 17.3848C1.80742 20.4003 4.42688 21.9999 9.43003 21.9999C14.4332 21.9999 17.236 19.7186 17.236 15.9427C17.236 11.9832 14.538 11.013 9.37764 10.4885Z" fill="black"/>
<path d="M185.614 2.07153C187.797 3.90705 188.67 6.87884 188.67 10.9869C188.67 15.3572 187.753 18.3552 185.614 20.0858C188.836 18.565 190.329 15.7156 190.329 11.0131C190.347 6.55544 188.548 3.56617 185.614 2.07153Z" fill="black"/>
<path d="M196.616 0.34082H194.992V21.7115H196.616V0.34082Z" fill="black"/>
<path d="M188.077 10.9868C188.077 3.22521 185.195 0.34082 177.547 0.34082H171.653V21.7115H177.573C185.108 21.7115 188.077 19.168 188.077 10.9868ZM177.25 20.9249H173.242V1.12747H177.25C183.982 1.12747 186.339 2.64833 186.339 11.0655C186.348 19.9546 183.798 20.9249 177.25 20.9249Z" fill="black"/>
<path d="M171.076 0.34082H169.479V21.7115H171.076V0.34082Z" fill="black"/>
<path d="M152.033 11.4064H161.542V10.5935H151.981V1.12747H164.187V0.34082H150.435V21.7115H164.921V20.9249H152.033V11.4064Z" fill="black"/>
<path d="M211.914 0.34082V21.7115H213.512V1.15369H220.846V0.34082H211.914Z" fill="black"/>
<path d="M198.79 0.34082H197.192V21.7115H198.79V0.34082Z" fill="black"/>
<path d="M202.405 1.15369H209.714V21.7115H211.338V0.34082H202.405V1.15369Z" fill="black"/>
<path d="M126.415 11.8521L119.395 0.34082H117.561L125.157 12.7961V21.7115H126.755V12.8223L134.326 0.34082H133.383L126.415 11.8521Z" fill="black"/>
<path d="M149.859 0.34082H148.261V21.7115H149.859V0.34082Z" fill="black"/>
<path d="M101.766 0.34082L92.8857 21.7115H93.8637L96.6578 15.0774H107.109L109.886 21.7115H111.536L102.63 0.34082H101.766ZM96.9634 14.2908L101.862 2.491L106.786 14.2908H96.9634Z" fill="black"/>
<path d="M85.6826 2.07153C87.8655 3.90705 88.7386 6.87884 88.7386 10.9869C88.7386 15.3572 87.8218 18.3552 85.6826 20.0858C88.9045 18.565 90.3976 15.7156 90.3976 11.0131C90.3976 6.55544 88.6251 3.56617 85.6826 2.07153Z" fill="black"/>
<path d="M103.207 0.34082L112.113 21.7115H113.789L104.883 0.34082H103.207Z" fill="black"/>
<path d="M88.1447 10.9868C88.1447 3.22521 85.2633 0.34082 77.6145 0.34082H71.7207V21.7115H77.6407C85.1847 21.7115 88.1447 19.168 88.1447 10.9868ZM77.3263 20.9249H73.3186V1.12747H77.3263C84.0583 1.12747 86.4158 2.64833 86.4158 11.0655C86.4158 19.9546 83.875 20.9249 77.3263 20.9249Z" fill="black"/>
<path d="M115.099 0.34082L122.957 13.2681V21.7115H124.581V12.9272L116.906 0.34082H115.099Z" fill="black"/>
</svg>
